<svg width="1055" height="703" viewBox="0 0 1055 703" fill="none" xmlns="http://www.w3.org/2000/svg">
<path d="M566.273 384.716L403.775 655.164L241.278 384.716H566.273ZM609.805 360.544H197.569L403.775 703L609.805 360.544Z" fill="white"/>
<path d="M848.795 48.3426L1011.29 318.79H686.296L848.795 48.3426ZM848.795 0L642.588 342.455H1055L848.795 0Z" fill="white"/>
<path d="M0 0L172.897 302.902L361.83 7.60594L0 0Z" fill="white"/>
<path d="M403.779 26.54L585.136 327.752H222.071L403.779 26.54Z" fill="white"/>
<path d="M631.84 393.504L813.372 703H441.671L626.199 393.504H631.84Z" fill="white"/>
<path d="M671.141 374.741L848.795 679.503L1028.92 374.741H671.141Z" fill="white"/>
</svg>
